<?xml version="1.0" encoding="UTF-8"?><svg id="a" xmlns="http://www.w3.org/2000/svg" xmlns:xlink="http://www.w3.org/1999/xlink" viewBox="0 0 3234 500"><defs><linearGradient id="b" x1="-26.5" y1="125.13" x2="317.38" y2="469.01" gradientUnits="userSpaceOnUse"><stop offset="0" stop-color="#ffc56d"/><stop offset=".13" stop-color="#febb70"/><stop offset=".35" stop-color="#fca27a"/><stop offset=".63" stop-color="#f87889"/><stop offset=".95" stop-color="#f33f9e"/><stop offset="1" stop-color="#f337a2"/></linearGradient><linearGradient id="c" x1="125.18" y1="-26.55" x2="469.55" y2="317.82" gradientUnits="userSpaceOnUse"><stop offset="0" stop-color="#53f"/><stop offset="1" stop-color="#f337a2"/></linearGradient></defs><polygon points="1622.99 491.03 1527.44 491.03 1527.44 21.85 1622.99 2.54 1622.99 491.03" style="fill:#1e1353;"/><rect x="2391.43" y="145.8" width="95.55" height="345.23" style="fill:#1e1353;"/><polygon points="2486.97 36.11 2486.97 97.9 2391.42 97.9 2391.42 54.51 2486.97 36.11" style="fill:#1e1353;"/><path d="M3111.23,127.62c-64.97,0-107.79,36.92-133.64,74.58v-74.58l-53.89,10.81v353.18h53.89v-223.72c23.63-43.56,59.07-88.6,115.93-88.6,46.51,0,83.43,23.62,83.43,91.56v220.75h55.34v-236.26c0-70.88-47.25-127.73-121.08-127.73" style="fill:#f238a3;"/><path d="M583.61,491.03V146.26l95.6-19.45v46.69c26.06-29.84,63.81-46.88,103.44-46.69,40.97-.64,78.67,22.26,96.99,58.9,28.01-33.77,66.81-58.9,117.81-58.9,63.23,0,111.35,51,111.35,116.35v247.86h-99.17v-214.8c0-49.57-25.15-58.91-45.97-58.91-25.87.84-50.47,11.35-68.96,29.46v244.25h-99.13v-214.8c0-49.57-25.16-58.91-45.97-58.91-26.58,0-51,13.65-70.39,33.04v240.66h-95.57Z" style="fill:#1e1353;"/><path d="M2041.64,146.17l95.55-19.35v46.69c28.92-30.92,69.74-47.93,112.06-46.69,64.19-1.27,117.26,49.74,118.52,113.94.03,1.3.03,2.59.01,3.87v246.4h-98.42v-208.33c0-54.59-29.46-65.37-55.34-65.37-28.74,0-54.6,15.09-76.87,43.11v230.6h-95.51V146.17Z" style="fill:#1e1353;"/><path d="M2719.18,450.26c-76.04,0-129.2-66.44-129.2-137.33s53.16-135.85,129.2-135.85,125.51,64.23,125.51,135.85-51.68,137.33-125.51,137.33M2718.45,127.62c-102.55,1.04-184.85,85.01-183.82,187.56,1.02,101.1,82.72,182.8,183.82,183.81,99.68,0,181.63-83.43,181.63-186.06s-81.95-185.31-181.63-185.31" style="fill:#f238a3;"/><path d="M1319.19,412.73c58.19,0,84.76-53.16,84.76-101.29s-26.57-99.13-84.76-99.13-88.35,52.44-88.35,99.13,28.73,101.29,88.35,101.29M1318.47,126.82c102.56.2,185.53,83.5,185.33,186.06-.2,102.56-83.5,185.54-186.06,185.34-102.56-.2-185.54-83.5-185.34-186.06,0-.24,0-.48,0-.72.99-102.11,83.94-184.42,186.06-184.61" style="fill:#1e1353;"/><path d="M1833.39,412.73c58.19,0,84.77-53.16,84.77-101.29s-26.58-99.13-84.77-99.13-88.35,52.44-88.35,99.13,28.73,101.29,88.35,101.29M1832.68,126.82c102.56.2,185.54,83.5,185.33,186.06-.2,102.56-83.5,185.54-186.06,185.34-102.56-.2-185.54-83.5-185.34-186.06,0-.24,0-.48,0-.72,1-102.11,83.94-184.42,186.06-184.61" style="fill:#1e1353;"/><path d="M489.1,394.7v94.34H155.08C70.12,489.03,1,419.92,1,334.95V95.46h94.34v239.49c0,32.95,26.79,59.75,59.75,59.75h334.01Z" style="fill:url(#b);"/><path d="M489.1,155.08v333.95h-94.34V155.08c0-32.95-26.79-59.75-59.75-59.75H95.46V1h239.55c84.97,0,154.08,69.12,154.08,154.08Z" style="fill:url(#c);"/><rect id="d" x="190.35" y="190.34" width="109.35" height="109.35" style="fill:#1e1353;"/></svg>